<svg xmlns="http://www.w3.org/2000/svg" width="37.25" height="37.25" viewBox="0 0 37.25 37.25">
  <g id="Group_332" data-name="Group 332" transform="translate(-139 -124.903)">
    <g id="Group_331" data-name="Group 331">
      <path id="Path_276" data-name="Path 276" d="M158.123,155.692a13.034,13.034,0,0,1-9.219-3.646c-.453-.425-.861-.9-1.28-1.36a.4.4,0,0,1-.092-.289,10.539,10.539,0,0,1,3.933-6.981c.342-.267.726-.48,1.083-.731.156-.109.251-.1.387.048a6.3,6.3,0,0,0,3.835,2,6.411,6.411,0,0,0,5.685-1.974.3.3,0,0,1,.443-.063,10.216,10.216,0,0,1,4.76,6.539c.1.369.164.745.224,1.121a.433.433,0,0,1-.079.314,13.324,13.324,0,0,1-7.573,4.734C159.4,155.58,158.554,155.635,158.123,155.692Z"/>
      <path id="Path_277" data-name="Path 277" d="M163.812,137.494a6.1,6.1,0,1,1-6.011-6.111A6.1,6.1,0,0,1,163.812,137.494Z"/>
    </g>
    <circle id="Ellipse_1" data-name="Ellipse 1" cx="17.625" cy="17.625" r="17.625" transform="translate(140 125.903)" fill="none" stroke="#000" stroke-miterlimit="10" stroke-width="2"/>
  </g>
</svg>
