<svg id="Layer_2" data-name="Layer 2" xmlns="http://www.w3.org/2000/svg" width="240.648" height="107.353" viewBox="0 0 240.648 107.353">
  <g id="Layer_1" data-name="Layer 1">
    <path id="Path_175" data-name="Path 175" d="M6.766,187.157c-4.373,0-6.766-2.4-6.766-6.766V173.9a1.11,1.11,0,0,1,1.115-1.11H4.56a1.115,1.115,0,0,1,1.115,1.11v6.627c0,.957.254,1.23,1.23,1.23h.7c.957,0,1.225-.254,1.225-1.23v-4.641a2.106,2.106,0,0,0-1.1-2.067l-4.307-3.129A7.2,7.2,0,0,1,0,164.045v-3.713c0-4.484,2.393-6.852,6.857-6.852h.88c4.364,0,6.766,2.393,6.766,6.766v5.565a1.11,1.11,0,0,1-1.105,1.115H9.953a1.11,1.11,0,0,1-1.11-1.11v-5.7c0-.957-.254-1.23-1.225-1.23H6.986c-.957,0-1.23.254-1.23,1.23v3.89A2.1,2.1,0,0,0,6.9,166.074l4.273,3.082a7.22,7.22,0,0,1,3.421,6.642V180.3c0,4.488-2.393,6.852-6.852,6.852Z" transform="translate(0 -80.04)" fill="#0a0203"/>
    <path id="Path_176" data-name="Path 176" d="M87.98,187.165a1.105,1.105,0,0,1-1.11-1.105V155.134A1.11,1.11,0,0,1,87.98,154h3.531a1.115,1.115,0,0,1,1.115,1.115V186.06a1.11,1.11,0,0,1-1.115,1.105Z" transform="translate(-45.302 -80.311)" fill="#0a0203"/>
    <path id="Path_177" data-name="Path 177" d="M107.22,187.186a1.11,1.11,0,0,1-1.11-1.105V155.155a1.115,1.115,0,0,1,1.11-1.115h3.531a1.115,1.115,0,0,1,1.115,1.115V181.7h4.718a1.11,1.11,0,0,1,1.11,1.11v3.273a1.11,1.11,0,0,1-1.11,1.105Z" transform="translate(-55.336 -80.332)" fill="#0a0203"/>
    <path id="Path_178" data-name="Path 178" d="M136.134,187.186A1.11,1.11,0,0,1,135,186.08V155.155a1.115,1.115,0,0,1,1.115-1.115h9.718a1.115,1.115,0,0,1,1.115,1.115v3.268a1.11,1.11,0,0,1-1.115,1.11h-5.072v8.024h4.852a1.115,1.115,0,0,1,1.11,1.11v3.225a1.11,1.11,0,0,1-1.11,1.115h-4.838v8.69h5.158a1.11,1.11,0,0,1,1.115,1.11v3.273a1.11,1.11,0,0,1-1.115,1.105Z" transform="translate(-70.402 -80.332)" fill="#0a0203"/>
    <path id="Path_179" data-name="Path 179" d="M178.805,154.471a1.11,1.11,0,0,0-.876-.431h-3.488a1.115,1.115,0,0,0-1.086.88l-2.158,10.01-2.072-10a1.11,1.11,0,0,0-1.086-.89h-3.622a1.127,1.127,0,0,0-1.081,1.388l4.957,20.188V186.08a1.11,1.11,0,0,0,1.115,1.105h3.531a1.11,1.11,0,0,0,1.11-1.105V175.553l4.962-20.145a1.11,1.11,0,0,0-.206-.957" transform="translate(-85.163 -80.332)" fill="#0a0203"/>
    <path id="Path_180" data-name="Path 180" d="M55.8,154H50.934a1.158,1.158,0,0,0-1.148.957l-3.206,19.9L43.378,155a1.163,1.163,0,0,0-1.148-.957H37.268a1.168,1.168,0,0,0-1.168,1.168v30.815a1.168,1.168,0,0,0,1.168,1.168h2.646a1.168,1.168,0,0,0,1.168-1.168V169.647l2.742,16.542a1.163,1.163,0,0,0,1.148.957h3.043a1.163,1.163,0,0,0,1.148-.957L51.9,169.647V186a1.168,1.168,0,0,0,1.168,1.168h2.737A1.168,1.168,0,0,0,56.977,186V155.187A1.168,1.168,0,0,0,55.8,154" transform="translate(-18.826 -80.311)" fill="#0a0203"/>
    <path id="Path_181" data-name="Path 181" d="M191,217.277h0a2.024,2.024,0,1,1,4.043,0h0a2.024,2.024,0,1,1-4.043,0m3.828,0h0a1.79,1.79,0,0,0-3.579,0h0a1.79,1.79,0,1,0,3.579,0m-2.579-1.072h.928c.455,0,.79.22.79.651a.622.622,0,0,1-.479.627l.545.78h-.479l-.479-.708h-.431v.708h-.4Zm.895,1.024c.268,0,.416-.139.416-.335s-.148-.34-.416-.34h-.479v.675Z" transform="translate(-99.604 -112.203)" fill="#231f20"/>
    <path id="Path_182" data-name="Path 182" d="M243.252,153h3.713v33.677h-3.029l-21.743-27.614v27.614h-3.7V153h3.56l21.217,26.987Z" transform="translate(-113.943 -79.789)" fill="#ffe300"/>
    <path id="Path_183" data-name="Path 183" d="M315.981,156.464H295.439v11.484h18.384v3.464H295.439V183.2h20.776v3.464H291.64V153h24.341Z" transform="translate(-152.09 -79.789)" fill="#ffe300"/>
    <path id="Path_184" data-name="Path 184" d="M370.472,152.8H373.6l9.235,28.141,9.623-28.045h3.991l-12.025,33.916h-3.2l-9.235-27.327-9.283,27.327h-3.177L347.48,152.9h4.139l9.623,28.045Z" transform="translate(-181.211 -79.685)" fill="#ffe300"/>
    <path id="Path_185" data-name="Path 185" d="M455.738,163a4.306,4.306,0,0,0,1.4,1.761,10.207,10.207,0,0,0,2.79,1.435,33.345,33.345,0,0,0,4.555,1.254q5.627,1.254,8.3,3.469a7.521,7.521,0,0,1,2.67,6.12,9.023,9.023,0,0,1-.857,3.952,8.933,8.933,0,0,1-2.359,3.034,10.6,10.6,0,0,1-3.617,1.914,15.183,15.183,0,0,1-4.618.675,20.178,20.178,0,0,1-7.383-1.306,20.853,20.853,0,0,1-6.374-4.034l2.359-2.79a19.834,19.834,0,0,0,5.34,3.584,15.35,15.35,0,0,0,6.22,1.177,8.659,8.659,0,0,0,5.46-1.589,5.053,5.053,0,0,0,2.043-4.192,5.609,5.609,0,0,0-.388-2.144,4.307,4.307,0,0,0-1.349-1.708,9.57,9.57,0,0,0-2.675-1.4,34.181,34.181,0,0,0-4.364-1.206,34.926,34.926,0,0,1-5.039-1.435A12.517,12.517,0,0,1,454.3,167.6a7.24,7.24,0,0,1-2.072-2.7,9.092,9.092,0,0,1-.675-3.661,8.384,8.384,0,0,1,.818-3.708,8.613,8.613,0,0,1,2.311-2.914A11.231,11.231,0,0,1,458.2,152.7a13.456,13.456,0,0,1,4.417-.708,18.69,18.69,0,0,1,6.469,1.019,19.618,19.618,0,0,1,5.364,3.067l-2.211,2.933a16.456,16.456,0,0,0-4.737-2.79,14.456,14.456,0,0,0-4.981-.88,9.484,9.484,0,0,0-2.957.435,7.494,7.494,0,0,0-2.259,1.158,4.982,4.982,0,0,0-1.435,1.732,4.786,4.786,0,0,0-.507,2.168A5.794,5.794,0,0,0,455.738,163Z" transform="translate(-234.8 -79.264)" fill="#ffe300"/>
    <path id="Path_186" data-name="Path 186" d="M310.721,117.262a3.78,3.78,0,0,1-.311,1.56,4.225,4.225,0,0,1-.852,1.268,4.12,4.12,0,0,1-1.268.852,4,4,0,0,1-3.11,0,4.254,4.254,0,0,1-1.268-.852,4.178,4.178,0,0,1-.861-1.268,4.034,4.034,0,0,1,0-3.11,4.13,4.13,0,0,1,.861-1.268,4.307,4.307,0,0,1,1.268-.861,4.058,4.058,0,0,1,3.11,0,3.972,3.972,0,0,1,2.12,2.129,3.78,3.78,0,0,1,.311,1.55m-.794,0a3.244,3.244,0,0,0-.244-1.268,3.139,3.139,0,0,0-.679-1.029,3.349,3.349,0,0,0-1-.689,3.168,3.168,0,0,0-1.249-.244,3.244,3.244,0,0,0-1.258.244,3.349,3.349,0,0,0-1.01.689,3.168,3.168,0,0,0-.665,1.048,3.311,3.311,0,0,0,.679,3.584,3.177,3.177,0,0,0,2.268.957,3.082,3.082,0,0,0,1.249-.254,3.158,3.158,0,0,0,1.038-.689,3.235,3.235,0,0,0,.679-1.029,3.273,3.273,0,0,0,.244-1.287m-2.345,2.144-.928-1.723h-.55v1.713h-.8v-4.306h1.627a1.407,1.407,0,0,1,.56.105,1.378,1.378,0,0,1,.435.282,1.307,1.307,0,0,1,.282.435,1.24,1.24,0,0,1,.105.479,1.105,1.105,0,0,1-.244.756,1.364,1.364,0,0,1-.6.416l.957,1.814Zm0-2.986a.632.632,0,0,0-.191-.478.708.708,0,0,0-.512-.191h-.718v1.306h.727a.7.7,0,0,0,.512-.191.622.622,0,0,0,.191-.479" transform="translate(-157.878 -59.072)" fill="#010101"/>
    <path id="Path_187" data-name="Path 187" d="M246.6,33.371A29.581,29.581,0,1,1,217.021,3.79h0a29.581,29.581,0,0,1,29.59,29.581h0" transform="translate(-97.75 -1.976)" fill="#fdeb07"/>
    <path id="Path_188" data-name="Path 188" d="M215.064,0a31.394,31.394,0,1,0,31.394,31.394h0A31.442,31.442,0,0,0,215.064,0m0,60.951a29.581,29.581,0,1,1,29.581-29.582,29.581,29.581,0,0,1-29.581,29.582h0" transform="translate(-95.784)" fill="#161311"/>
    <path id="Path_189" data-name="Path 189" d="M231.922,32.627c0,2.392-.785,4.306-1.756,4.306s-1.756-1.914-1.756-4.306.785-4.307,1.756-4.307,1.756,1.914,1.756,4.307" transform="translate(-119.116 -14.769)" fill="#161311"/>
    <path id="Path_190" data-name="Path 190" d="M264.832,32.627c0,2.392-.785,4.306-1.756,4.306s-1.756-1.914-1.756-4.306.785-4.307,1.756-4.307,1.756,1.914,1.756,4.307" transform="translate(-136.278 -14.769)" fill="#161311"/>
    <path id="Path_191" data-name="Path 191" d="M223.435,86.2c-11.006,0-18.049-9.934-20.987-15.494-1.589-3-1.163-3.78-.6-4.728.388-.641.435-.842.34-1.029s-.541,0-1.029.33a6.034,6.034,0,0,0-1.914,1.914,8.943,8.943,0,0,0-.67,2.488c-.115.785-.077,1.172.172,1.22s.34-.182.569-.708c.55-1.239,1.115-1.105,2.014.479,3.244,5.67,10.02,17.2,22.045,17.2,11.345,0,17.537-10.728,19.618-14.436,1.22-2.163,1.627-1.191,2.172-.1.407.813.957.689.88-.191a16.948,16.948,0,0,0-2.268-6.618c-.641-.957-1.038-.612-.88.34a11.485,11.485,0,0,1,.416,2.589,7.713,7.713,0,0,1-.957,3.273c-2.713,5.35-9.159,13.5-18.906,13.5" transform="translate(-103.523 -33.832)" fill="#161311"/>
  </g>
</svg>
