<svg xmlns="http://www.w3.org/2000/svg" width="33.845" height="33.845" viewBox="0 0 33.845 33.845">
  <g id="Group_327" data-name="Group 327" transform="translate(-1741.314 -125.748)">
    <path id="Path_270" data-name="Path 270" d="M1758.236,125.748a16.923,16.923,0,1,0,16.923,16.923A16.923,16.923,0,0,0,1758.236,125.748Zm11.277,20.072a8.691,8.691,0,0,1-.353,2.452,2.732,2.732,0,0,1-2.254,1.981,18.633,18.633,0,0,1-2.739.261c-1.838.069-3.678.116-5.377.167-1.734-.038-3.328-.062-4.921-.113a35.281,35.281,0,0,1-3.615-.259,3.485,3.485,0,0,1-1.495-.479,2.943,2.943,0,0,1-1.3-2.03,22.327,22.327,0,0,1-.3-2.667,37.418,37.418,0,0,1-.02-4.4,23.363,23.363,0,0,1,.337-3.107,2.886,2.886,0,0,1,2.491-2.381c.875-.1,1.753-.192,2.633-.237,1.327-.066,2.657-.1,3.986-.124,1.249-.019,2.5-.014,3.747.006,1.222.02,2.443.061,3.664.113a24.465,24.465,0,0,1,2.82.26,2.851,2.851,0,0,1,2.406,2.242,11.607,11.607,0,0,1,.3,2.582C1769.517,142,1769.536,143.908,1769.513,145.82Z"/>
    <path id="Path_271" data-name="Path 271" d="M1756.12,145.884,1762,142.5l-5.881-3.387Z"/>
    <path id="Path_272" data-name="Path 272" d="M1769.523,140.084a11.607,11.607,0,0,0-.3-2.582,2.851,2.851,0,0,0-2.406-2.242A24.465,24.465,0,0,0,1764,135c-1.221-.052-2.442-.093-3.664-.113-1.249-.02-2.5-.025-3.747-.006-1.329.021-2.659.058-3.986.124-.88.045-1.758.136-2.633.237a2.886,2.886,0,0,0-2.491,2.381,23.363,23.363,0,0,0-.337,3.107,37.418,37.418,0,0,0,.02,4.4,22.327,22.327,0,0,0,.3,2.667,2.943,2.943,0,0,0,1.3,2.03,3.485,3.485,0,0,0,1.495.479,35.281,35.281,0,0,0,3.615.259c1.593.051,3.187.075,4.921.113,1.7-.051,3.539-.1,5.377-.167a18.633,18.633,0,0,0,2.739-.261,2.732,2.732,0,0,0,2.254-1.981,8.691,8.691,0,0,0,.353-2.452C1769.536,143.908,1769.517,142,1769.523,140.084Zm-13.4,5.8V139.11L1762,142.5Z" fill="#fff"/>
  </g>
</svg>
