<svg xmlns="http://www.w3.org/2000/svg" width="33.109" height="33.108" viewBox="0 0 33.109 33.108">
  <path id="Path_265" data-name="Path 265" d="M1802.994,137.5h-2.385c-1.484,0-2,.784-2,2.37v1.768h4.351l-.59,4.139h-3.761v10.967c-.454.045-.913.069-1.379.069a13.924,13.924,0,0,1-2.759-.277V145.775h-4.139v-4.139h4.139v-2.222c0-4.208,2.05-6.055,5.547-6.055a20.306,20.306,0,0,1,2.979.181Zm-5.767-11.036a16.554,16.554,0,1,0,16.554,16.554A16.556,16.556,0,0,0,1797.227,126.462Z" transform="translate(-1780.672 -126.462)"/>
</svg>
