<svg xmlns="http://www.w3.org/2000/svg" width="33.845" height="33.108" viewBox="0 0 33.845 33.108">
  <g id="Group_326" data-name="Group 326" transform="translate(-1701.814 -126.462)">
    <path id="Path_268" data-name="Path 268" d="M1718.736,126.462q.833,0,1.659.08t1.643.238q.815.159,1.611.4t1.563.547q.768.312,1.5.7t1.425.835q.692.451,1.334.968t1.23,1.09q.588.576,1.115,1.205a16.268,16.268,0,0,1,.99,1.3q.462.677.853,1.393a16.427,16.427,0,0,1,1.27,3q.241.778.4,1.575a16.176,16.176,0,0,1,.244,1.608q.081.809.082,1.622t-.082,1.622a16.332,16.332,0,0,1-1.917,6.182q-.391.717-.853,1.393t-.99,1.305q-.527.628-1.115,1.2t-1.23,1.091q-.644.516-1.334.967t-1.425.835q-.732.384-1.5.695t-1.563.548q-.8.235-1.611.394t-1.643.239q-.827.08-1.659.079t-1.658-.079q-.828-.081-1.643-.239t-1.611-.394q-.8-.237-1.563-.548t-1.5-.695q-.732-.383-1.424-.835t-1.334-.967q-.642-.518-1.23-1.091t-1.115-1.2q-.528-.629-.99-1.305t-.854-1.393q-.391-.719-.71-1.469t-.559-1.53a16.162,16.162,0,0,1-.4-1.575,15.86,15.86,0,0,1-.244-1.608q-.081-.809-.082-1.622t.082-1.622a15.86,15.86,0,0,1,.244-1.608,16.235,16.235,0,0,1,.4-1.575q.242-.778.559-1.53t.71-1.469q.393-.716.854-1.393a16.239,16.239,0,0,1,.99-1.3q.526-.63,1.115-1.205t1.23-1.09q.644-.518,1.334-.968t1.424-.835q.734-.384,1.5-.7t1.563-.547q.8-.237,1.611-.4t1.643-.238Q1717.9,126.461,1718.736,126.462Z"/>
    <path id="Path_269" data-name="Path 269" d="M1725.438,137.882a1.063,1.063,0,1,1,1.064-1.063A1.063,1.063,0,0,1,1725.438,137.882Zm-6.381,10.636a5.318,5.318,0,1,1,5.318-5.317A5.318,5.318,0,0,1,1719.057,148.518Zm4.254-14.89H1714.8a5.319,5.319,0,0,0-5.318,5.318v8.509a5.319,5.319,0,0,0,5.318,5.318h8.509a5.319,5.319,0,0,0,5.318-5.318v-8.509A5.318,5.318,0,0,0,1723.311,133.628Z" fill="#fff"/>
  </g>
</svg>
