<svg xmlns="http://www.w3.org/2000/svg" width="33.659" height="33.108" viewBox="0 0 33.659 33.108">
  <path id="Path_266" data-name="Path 266" d="M1845.817,139.615c.008.184.013.366.013.548a12.089,12.089,0,0,1-12.28,12.079,12.339,12.339,0,0,1-6.615-1.908,8.86,8.86,0,0,0,6.389-1.76,4.312,4.312,0,0,1-4.032-2.948,4.4,4.4,0,0,0,1.95-.073,4.265,4.265,0,0,1-3.463-4.162v-.054a4.338,4.338,0,0,0,1.955.531,4.226,4.226,0,0,1-1.92-3.532,4.169,4.169,0,0,1,.583-2.135,12.324,12.324,0,0,0,8.9,4.437,4.231,4.231,0,0,1-.111-.968,4.282,4.282,0,0,1,4.315-4.245,4.337,4.337,0,0,1,3.15,1.341,8.758,8.758,0,0,0,2.742-1.031,4.273,4.273,0,0,1-1.9,2.349,8.733,8.733,0,0,0,2.48-.667A8.617,8.617,0,0,1,1845.817,139.615Zm-9.065-13.153a16.556,16.556,0,1,0,16.829,16.554A16.695,16.695,0,0,0,1836.752,126.462Z" transform="translate(-1819.922 -126.462)"/>
</svg>
