<svg fill="none" height="182" viewBox="0 0 212 182" width="212" xmlns="http://www.w3.org/2000/svg"><g fill="#c7c7c7" opacity=".382929"><path d="m1 0h97v74.7181c0 27.5079-5.7233 49.2549-17.1701 65.2389-11.4468 15.985-30.9953 29.999-58.646 42.043l-21.1839-39.701c17.2445-8.029 29.1-16.022 35.5667-23.977s10.0716-17.36 10.8149-28.2142h-46.3816z"/><path d="m114 0h97v74.7181c0 27.5079-5.723 49.2549-17.17 65.2389-11.447 15.985-30.995 29.999-58.646 42.043l-21.184-39.701c17.245-8.029 29.1-16.022 35.567-23.977 6.466-7.955 10.071-17.36 10.815-28.2142h-46.382z"/></g></svg>