<svg fill="none" height="55" viewBox="0 0 170 55" width="170" xmlns="http://www.w3.org/2000/svg"><g clip-rule="evenodd" fill="#fff" fill-rule="evenodd"><path d="m165.95 25.5531c0-.2003-.07-.3762-.216-.5221-.143-.1402-.341-.2117-.581-.2117h-.824v1.4719h.824c.24 0 .438-.0701.581-.2146.146-.143.216-.3147.216-.5235zm0 3.3671-1.001-1.9281h-.62v1.9281h-.896v-4.8576h1.831c.234 0 .443.0401.635.1216.191.0772.355.1888.492.319.138.1316.242.2989.324.4849.077.1759.117.369.117.565 0 .3504-.09.6351-.279.8525-.19.2203-.411.3748-.68.4692l1.084 2.0454zm2.651-2.4245c0-.5078-.095-.9912-.281-1.4318-.192-.4563-.442-.8411-.766-1.1643-.324-.3305-.705-.5808-1.136-.781-.438-.186-.903-.279-1.413-.279-.503 0-.982.093-1.421.279-.436.2002-.816.4505-1.141.781-.322.3232-.577.708-.766 1.1643-.185.4406-.281.924-.281 1.4318 0 .5192.096.9998.281 1.4447.189.4463.444.8339.766 1.1586.325.3276.705.5951 1.141.7781.439.1903.918.289 1.421.289.51 0 .975-.0987 1.413-.289.431-.183.812-.4505 1.136-.7781.324-.3247.574-.7123.766-1.1586.186-.4449.281-.9255.281-1.4447zm.899 0c0 .6251-.113 1.213-.357 1.7594-.237.5421-.554 1.0184-.953 1.4275-.407.3991-.881.7252-1.432.9627-.544.2331-1.136.3547-1.753.3547-.629 0-1.204-.1216-1.76-.3547-.54-.2375-1.014-.5636-1.425-.9627-.405-.4091-.727-.8854-.966-1.4275-.231-.5464-.354-1.1343-.354-1.7594 0-.6165.123-1.2001.354-1.7451.239-.5464.561-1.0241.966-1.4318.411-.4005.885-.7266 1.425-.9684.556-.2302 1.131-.3504 1.76-.3504.617 0 1.209.1202 1.753.3504.551.2418 1.025.5679 1.432.9684.399.4077.716.8854.953 1.4318.244.545.357 1.1286.357 1.7451z"/><path d="m.653143 26.4916 3.002247-3.8065c.2228-.2829.61688-.3168.88981-.0913 2.49955 2.0704 5.13417 3.3628 8.2882 3.3628 2.6444 0 4.2416-1.1126 4.2416-2.934v-.0884c0-1.7315-1.0096-2.6216-5.921-3.9552-5.92369-1.6004-9.74333-3.3334-9.74333-9.51089v-.08989c0-5.64403 4.28335-9.37822 10.28923-9.37822 4.0494 0 7.5362 1.27175 10.4229 3.55294.2785.21957.337.64545.1407.94754l-2.65 4.06576c-.1977.30357-.5918.37431-.8828.17095-2.423-1.68732-4.8056-2.69086-7.1157-2.69086-2.47871 0-3.7807 1.19954-3.7807 2.71001v.0899c0 2.04396 1.26022 2.71006 6.3429 4.08786 5.9627 1.6461 9.3228 3.9125 9.3228 9.334v.0884c0 6.1775-4.4505 9.6435-10.7933 9.6435-4.24577 0-8.52912-1.4943-11.974184-4.5241-.278501-.2431-.309136-.6926-.079373-.9843"/><path d="m29.1566 1h6.0912c.2274 0 .4392.12188.5586.32012l7.6943 12.78708 7.6929-12.78708c.1194-.19824.3298-.32012.5557-.32012h6.0955c.3624 0 .6552.30396.6552.67841v29.64169c0 .3759-.2928.6799-.6552.6799h-5.2428c-.3638 0-.6566-.304-.6566-.6799v-19.558l-8.4447 13.2408h-.172l-8.358-13.1101v19.4273c0 .3759-.2942.6799-.6566.6799h-5.1575c-.3624 0-.6566-.304-.6566-.6799v-29.64169c0-.37445.2942-.67841.6566-.67841"/><path d="m67.0966 1h4.8068c.3293 0 .5966.30396.5966.67841v29.64169c0 .3759-.2673.6799-.5966.6799h-4.8068c-.3293 0-.5966-.304-.5966-.6799v-29.64169c0-.37445.2673-.67841.5966-.67841"/><path d="m82.202 1h5.639c.3881 0 .702.30396.702.67841v24.12189h15.256c.387 0 .701.304.701.6784v4.8414c0 .3759-.314.6799-.701.6799h-22.299v-30.32159c0-.37445.3139-.67841.702-.67841"/><path d="m109.161 1h21.463c.367 0 .663.30396.663.67841v4.70926c0 .37444-.296.67841-.663.67841h-15.523v6.28932h13.583c.363 0 .66.3025.66.6769v4.7122c0 .3744-.297.6784-.66.6784h-13.583v6.5096h15.735c.368 0 .664.3054.664.6798v4.7078c0 .3759-.296.6799-.664.6799h-21.675c-.365 0-.661-.304-.661-.6799v-29.64169c0-.37445.296-.67841.661-.67841"/><path d="m146.038 19.7768-11.43-17.73422c-.29-.4508.038-1.04258.582-1.04258h6.452c.243 0 .468.12628.592.33186l7.316 12.11304 7.445-12.11597c.125-.20411.347-.32893.589-.32893h6.225c.545 0 .874.59325.582 1.04552l-11.424 17.59768v11.6784c0 .3744-.31.6784-.689.6784h-5.551c-.382 0-.689-.304-.689-.6784z"/></g></svg>