<svg fill="none" height="89" viewBox="0 0 260 89" width="260" xmlns="http://www.w3.org/2000/svg"><g clip-rule="evenodd" fill="#fff" fill-rule="evenodd"><path d="m11.601 70.9325-2.8453 6.9398h5.6906zm6.4822 15.8986-1.9562-4.8015h-9.05203l-1.95614 4.8015h-4.801447l9.173497-21.5545h4.34172l9.1735 21.5545z"/><path d="m65.4348 86.9836h-4.0966l-4.8318-14.0032-4.8318 14.0032h-4.0945l-7.3106-21.5545h5.0465l4.435 14.4911 4.7971-14.554h4.0381l4.8014 14.554 4.4328-14.4911h4.9229z"/><path d="m101.298 70.9325-2.8453 6.9398h5.6903zm6.482 15.8986-1.956-4.8015h-9.052l-1.9561 4.8015h-4.7993l9.1713-21.5545h4.3421l9.173 21.5545z"/><path d="m147.43 72.7347c0-2.019-1.406-3.0556-3.7-3.0556h-4.678v6.146h4.769c2.294 0 3.609-1.2253 3.609-3.0296zm-.092 14.0964-4.586-6.8487h-3.7v6.8487h-4.708v-21.4026h9.785c5.044 0 8.069 2.6588 8.069 7.0633v.0608c0 3.4547-1.862 5.6255-4.584 6.6361l5.226 7.6424z"/><path d="m189.615 76.1297c0-3.7909-2.598-6.4519-6.452-6.4519h-3.636v12.9037h3.636c3.854 0 6.452-2.6003 6.452-6.3911zm-6.452 10.7024h-8.345v-21.4049h8.345c6.728 0 11.377 4.6172 11.377 10.6417v.0608c0 6.0224-4.649 10.7024-11.377 10.7024z"/><path d="m224.403 87.136c-3.243 0-6.515-1.1298-9.081-3.4243l2.783-3.3311c1.923 1.5875 3.942 2.5981 6.389 2.5981 1.928 0 3.088-.7655 3.088-2.019v-.0608c0-1.1927-.733-1.8043-4.309-2.7217-4.314-1.1016-7.096-2.2922-7.096-6.5407v-.0629c0-3.8841 3.12-6.4518 7.49-6.4518 3.121 0 5.78.9781 7.951 2.7217l-2.447 3.5458c-1.895-1.3142-3.76-2.108-5.564-2.108-1.805 0-2.752.8241-2.752 1.8651v.0586c0 1.4096.917 1.8672 4.617 2.8149 4.341 1.132 6.788 2.6892 6.788 6.4214v.0586c0 4.2506-3.24 6.6361-7.857 6.6361z"/><path d="m252.417 39.5779c0-.3058-.106-.5704-.327-.7916-.217-.2147-.517-.3209-.881-.3209h-1.247v2.2315h1.247c.364 0 .664-.1062.881-.3253.221-.2168.327-.4771.327-.7937zm0 5.1051-1.516-2.9234h-.939v2.9234h-1.357v-7.3649h2.773c.354 0 .67.0586.961.1844.291.1171.538.2862.746.4836.208.1995.367.4533.49.733.117.2711.178.5617.178.8588 0 .5313-.137.9629-.423 1.2925-.288.334-.622.5682-1.03.7114l1.642 3.1012zm4.014-3.6759c0-.7699-.143-1.5029-.425-2.173-.29-.6897-.67-1.2752-1.16-1.7632-.49-.5031-1.067-.8805-1.72-1.1862-.663-.2798-1.368-.4186-2.142-.4186-.759 0-1.486.1388-2.15.4186-.661.3057-1.236.6831-1.728 1.1862-.488.488-.874 1.0735-1.16 1.7632-.28.6701-.425 1.4031-.425 2.173 0 .7872.145 1.5159.425 2.1903.286.6745.672 1.2644 1.16 1.7567.492.4944 1.067.9043 1.728 1.1775.664.2906 1.391.4403 2.15.4403.774 0 1.479-.1497 2.142-.4403.653-.2732 1.23-.6831 1.72-1.1775.49-.4923.87-1.0822 1.16-1.7567.282-.6744.425-1.4031.425-2.1903zm1.362 0c0 .9477-.171 1.839-.54 2.6674-.36.822-.839 1.5441-1.444 2.1644-.616.605-1.334 1.0995-2.169 1.4595-.824.3535-1.72.5378-2.656.5378-.952 0-1.824-.1843-2.664-.5378-.817-.36-1.537-.8545-2.157-1.4595-.614-.6203-1.104-1.3424-1.464-2.1644-.349-.8284-.536-1.7197-.536-2.6674 0-.9326.187-1.8196.536-2.6458.36-.8285.85-1.5528 1.464-2.1709.62-.6094 1.34-1.1017 2.157-1.4682.84-.3491 1.712-.5313 2.664-.5313.936 0 1.832.1822 2.656.5313.835.3665 1.553.8588 2.169 1.4682.605.6181 1.084 1.3424 1.444 2.1709.369.8262.54 1.7132.54 2.6458z"/><path d="m2.41038 40.7321 4.67566-5.6038c.34699-.4143.96072-.4663 1.38578-.1323 3.89278 3.047 7.99588 4.9489 12.90798 4.9489 4.1183 0 6.6058-1.6374 6.6058-4.3178v-.1302c0-2.5503-1.5723-3.858-9.2212-5.8207-9.22559-2.3552-15.17426-4.9055-15.17426-13.9988v-.1301c0-8.30603 6.67086-13.80145 16.02436-13.80145 6.3065 0 11.7368 1.87157 16.2325 5.22867.4337.32314.5248.94988.219 1.39446l-4.1269 5.98122c-.308.4489-.9217.553-1.375.2516-3.7735-2.481-7.4841-3.96-11.0819-3.96-3.8603 0-5.888 1.7653-5.888 3.9903v.1301c0 3.0102 1.9627 3.9904 9.8783 6.0181 9.2863 2.4202 14.5193 5.7557 14.5193 13.7364v.1279c0 9.0933-6.9311 14.1919-16.8094 14.1919-6.6123 0-13.28311-2.1969-18.64841-6.6557-.43373-.3578-.48144-1.0215-.12361-1.4487z"/><path d="m47.7763 2.40332h9.295c.347 0 .6701.17783.8523.47277l11.7412 18.88481 11.739-18.88481c.1822-.29277.5031-.47277.848-.47277h9.3014c.5508 0 .9998.44892.9998 1.00193v43.77685c0 .553-.449 1.0019-.9998 1.0019h-8.0002c-.5552 0-1.002-.4489-1.002-1.0019v-28.8867l-12.8862 19.5571h-.2624l-12.754-19.362v28.6916c0 .553-.4489 1.0019-1.0041 1.0019h-7.868c-.5551 0-1.0019-.4489-1.0019-1.0019v-43.77685c0-.55301.4468-1.00193 1.0019-1.00193z"/><path d="m105.024 2.40332h8.07c.555 0 1.004.44892 1.004 1.00193v43.77685c0 .553-.449 1.0019-1.004 1.0019h-8.07c-.553 0-1.002-.4489-1.002-1.0019v-43.77685c0-.55301.449-1.00193 1.002-1.00193z"/><path d="m126.552 2.40332h8.065c.555 0 1.004.44892 1.004 1.00193v35.62485h21.822c.553 0 1.001.4489 1.001 1.0019v7.1501c0 .553-.448 1.0019-1.001 1.0019h-31.895v-44.77875c0-.55301.449-1.00193 1.004-1.00193z"/><path d="m167.05 2.40332h32.528c.555 0 1.002.44892 1.002 1.00193v6.95275c0 .5552-.447 1.0041-1.002 1.0041h-23.526v9.2863h20.585c.551 0 1 .4489 1 1.0019v6.9571c0 .5552-.449 1.0041-1 1.0041h-20.585v9.6137h23.847c.557 0 1.006.4511 1.006 1.002v6.9549c0 .553-.449 1.0019-1.006 1.0019h-32.849c-.553 0-1.002-.4489-1.002-1.0019v-43.77685c0-.55301.449-1.00193 1.002-1.00193z"/><path d="m222.766 30.1322-16.614-26.19105c-.423-.66578.054-1.53759.846-1.53759h9.379c.354 0 .681.18434.861.48796l10.633 17.88938 10.826-17.89372c.182-.30145.505-.48362.857-.48362h9.05c.791 0 1.27.87398.845 1.54193l-16.607 25.98941v17.2475c0 .553-.451 1.0019-1.002 1.0019h-8.07c-.555 0-1.004-.4489-1.004-1.0019z"/></g></svg>