<svg xmlns="http://www.w3.org/2000/svg" width="33.803" height="33.12" viewBox="0 0 33.803 33.12"><g transform="translate(-0.033)"><path d="M16.92,0q.83,0,1.66.08t1.64.24q.82.16,1.61.39a14.958,14.958,0,0,1,1.56.55q.77.31,1.5.69t1.42.83a12.6,12.6,0,0,1,1.33,1q.64.55,1.23,1.09.59.58,1.12,1.2a16,16,0,0,1,1,1.3q.46.68.85,1.39a15.726,15.726,0,0,1,.71,1.47,16.24,16.24,0,0,1,0,12.67q-.32.75-.71,1.47A15.838,15.838,0,0,1,31,25.75a13.463,13.463,0,0,1-1,1.3q-.54.62-1.12,1.2t-1.23,1.09q-.64.52-1.33,1-.69.45-1.42.83t-1.5.69q-.77.31-1.56.55a14.527,14.527,0,0,1-1.61.39q-.82.16-1.64.24t-1.66.08q-.83,0-1.66-.08t-1.64-.24q-.82-.16-1.61-.39a14.958,14.958,0,0,1-1.56-.55q-.77-.31-1.5-.69t-1.42-.83a12.6,12.6,0,0,1-1.33-1Q5.57,28.79,5,28.26q-.59-.58-1.12-1.2a16,16,0,0,1-1-1.3q-.46-.68-.85-1.39a15.728,15.728,0,0,1-.71-1.47,16.24,16.24,0,0,1,0-12.67q.32-.75.71-1.47a15.48,15.48,0,0,1,.85-1.39,13.464,13.464,0,0,1,1-1.3Q4.42,5.45,5,4.85q.59-.57,1.23-1.09t1.33-1A11.081,11.081,0,0,1,8.95,2l1.5-.69A11.269,11.269,0,0,1,12,.71,14.344,14.344,0,0,1,13.62.32q.82-.16,1.64-.24T16.92,0Z" fill="rgba(199,59,195,0.73)"/><path d="M23.62,11.42a1.06,1.06,0,1,1,1.06-1.06A1.06,1.06,0,0,1,23.62,11.42ZM17.24,22.06a5.32,5.32,0,1,1,5.32-5.32,5.32,5.32,0,0,1-5.32,5.32ZM21.5,7.17H13a5.32,5.32,0,0,0-5.32,5.32V21A5.32,5.32,0,0,0,13,26.31h8.5A5.32,5.32,0,0,0,26.81,21V12.48A5.32,5.32,0,0,0,21.5,7.17Z" fill="#fff"/></g></svg>