<svg xmlns="http://www.w3.org/2000/svg" width="33.66" height="33.111" viewBox="0 0 33.66 33.111"><g transform="translate(0 0)"><path d="M25.89,13.15v.55A12.09,12.09,0,0,1,13.63,25.78,12.35,12.35,0,0,1,7,23.87a8.86,8.86,0,0,0,6.39-1.76,4.31,4.31,0,0,1-4-2.95,4.41,4.41,0,0,0,1.95-.07,4.27,4.27,0,0,1-3.46-4.16v-.05a4.35,4.35,0,0,0,2,.53,4.23,4.23,0,0,1-1.92-3.53,4.16,4.16,0,0,1,.58-2.13,12.32,12.32,0,0,0,8.9,4.44,4.23,4.23,0,0,1-.11-1A4.28,4.28,0,0,1,21.57,9a4.34,4.34,0,0,1,3.15,1.34,8.76,8.76,0,0,0,2.74-1,4.28,4.28,0,0,1-1.9,2.35A8.75,8.75,0,0,0,28,11,8.62,8.62,0,0,1,25.89,13.15ZM16.83,0A16.69,16.69,0,0,0,0,16.55,16.69,16.69,0,0,0,16.83,33.11,16.69,16.69,0,0,0,33.66,16.55,16.69,16.69,0,0,0,16.83,0Z" fill="#15bcde"/></g></svg>