<svg xmlns="http://www.w3.org/2000/svg" width="33.84" height="33.84" viewBox="0 0 33.84 33.84"><path d="M16.92,0A16.92,16.92,0,1,0,33.84,16.92,16.92,16.92,0,0,0,16.92,0ZM28.2,20.07a8.68,8.68,0,0,1-.35,2.45,2.73,2.73,0,0,1-2.25,2,18.68,18.68,0,0,1-2.74.26c-1.84.07-3.68.12-5.38.17s-3.33-.06-4.92-.11a35.42,35.42,0,0,1-3.62-.26,3.49,3.49,0,0,1-1.5-.48,2.94,2.94,0,0,1-1.3-2,22.18,22.18,0,0,1-.3-2.67,37.45,37.45,0,0,1,0-4.4,23.51,23.51,0,0,1,.34-3.11A2.89,2.89,0,0,1,8.66,9.49c.88-.1,1.75-.19,2.63-.24,1.33-.07,2.66-.1,4-.12s2.5,0,3.75,0,2.44.06,3.66.11a24.37,24.37,0,0,1,2.82.26,2.85,2.85,0,0,1,2.41,2.24,11.61,11.61,0,0,1,.3,2.58C28.2,16.25,28.22,18.16,28.2,20.07Z" fill="#e70f0f"/><path d="M14.81,20.14l5.88-3.39-5.88-3.39Z" transform="translate(0)" fill="#e70f0f"/><path d="M28.21,14.34a11.61,11.61,0,0,0-.3-2.58A2.85,2.85,0,0,0,25.5,9.52a24.369,24.369,0,0,0-2.82-.26c-1.22-.05-2.44-.09-3.66-.11s-2.5,0-3.75,0-2.66.06-4,.12a23.153,23.153,0,0,0-2.63.24,2.89,2.89,0,0,0-2.49,2.38A23.51,23.51,0,0,0,5.83,15a37.45,37.45,0,0,0,0,4.4,22.18,22.18,0,0,0,.3,2.67,2.94,2.94,0,0,0,1.3,2,3.49,3.49,0,0,0,1.5.48,35.42,35.42,0,0,0,3.62.26c1.59.05,3.19.07,4.92.11s3.54-.1,5.38-.17a18.68,18.68,0,0,0,2.74-.26,2.73,2.73,0,0,0,2.25-2,8.68,8.68,0,0,0,.35-2.45C28.22,18.16,28.2,16.25,28.21,14.34Zm-13.4,5.8V13.36l5.88,3.39Z" fill="#fff"/></svg>