<svg xmlns="http://www.w3.org/2000/svg" width="34.137" height="34.137" viewBox="0 0 34.137 34.137"><g transform="translate(0 0)"><ellipse cx="17.068" cy="17.068" rx="17.068" ry="17.068" fill="#e5ad26"/><path d="M20.14,35.18H36.89c.1,3.172-.985,5.571-3.821,6.946l-.425,1a52.152,52.152,0,0,1-8.275.047l-.331-1.1C21.286,40.623,20.174,38.322,20.14,35.18Z" transform="translate(-11.589 -20.243)" fill="#fff"/><path d="M38.958,22.177a36.32,36.32,0,0,1-.025-8.067c.183.255.4.425.4.577q.025,3.4,0,6.793C39.323,21.676,39.128,21.867,38.958,22.177Z" transform="translate(-22.28 -8.119)" fill="#fff"/><path d="M48.469,19.74a14.056,14.056,0,0,1-.064,5.52A10.783,10.783,0,0,1,48.469,19.74Z" transform="translate(-27.664 -11.359)" fill="#fff"/><path d="M29.12,19.71a13.767,13.767,0,0,1,0,5.583c-.115-.106-.284-.187-.3-.289A17.436,17.436,0,0,1,29.12,19.71Z" transform="translate(-16.539 -11.341)" fill="#fff"/></g></svg>