<svg xmlns="http://www.w3.org/2000/svg" width="34.12" height="34.12" viewBox="0 0 34.12 34.12"><ellipse cx="17.06" cy="17.06" rx="17.06" ry="17.06" fill="#f11e24"/><path d="M17.456,29.015l-.849.912-.717-.6,1.664-5.453a30.78,30.78,0,0,1,4.749,0L23.673,28.3c.849-1.333.789-2.945,1.617-4.329a22.538,22.538,0,0,1,4.227-.1c.2.216.505.4.581.658a37.1,37.1,0,0,1,1.388,5.054,1.982,1.982,0,0,1-.492.28,1.863,1.863,0,0,1-.535-.093l-.908-2.788-.216.038v10.9c0,.488.106,1.052-.581,1.273-.645-.085-.666-.594-.666-1.12v-6.9l-.8-.068a1.464,1.464,0,0,0-.187.446q0,2.96,0,5.941a2.046,2.046,0,0,1-.594,1.748l-.806-.475V27.1l-.212-.034-.87,2.754-1.7.076-.136-.208-.076.064.182.178c.1.484.2.972.314,1.451s.242.942.39,1.519l-1.867.242-.059,5.941-.934.2c-.518-1.031-.225-2.058-.276-3.039s0-2,0-3.081l-1.027-.081a8.781,8.781,0,0,0-.115.946v3.942c0,.424.115.925-.424,1.311l-.679-.157c-.246-2,0-3.972-.157-5.984L16.709,32.9c-.038-.136-.14-.289-.11-.424.276-1.171.569-2.343.849-3.51.471-.318.242-.806.3-1.222.475-.182.242-.6.31-.921l.31-.675-.2-.059-.115.785c-.467.182-.259.594-.31.917C17.282,28.119,17.5,28.595,17.456,29.015Zm4.846-.662.025.136-.072-.093c-.081-.31.187-.734-.3-.912,0-.53.132-1.095-.509-1.434.233.45.051,1.035.552,1.4Z" transform="translate(-9.147 -13.691)" fill="#fff"/><path d="M56.119,45.127a2.706,2.706,0,0,1-.9-1.545,10.037,10.037,0,0,0-.157,1.1v3.187a12.4,12.4,0,0,1-.238,1.511c-.908-.463-.518-1.159-.615-1.7s.153-1.082-.314-1.7c-.815,1.061.106,2.377-.666,3.285-.547-.042-.552-.424-.552-.768V44.859a3.128,3.128,0,0,0-.212-1.362l-.59,1.591-.62.081a16.814,16.814,0,0,1,1.027-3.849h2.78A5.594,5.594,0,0,1,56.119,45.127Z" transform="translate(-29.506 -23.785)" fill="#fff"/><path d="M40.563,16.147c1.49-.1,2.058.216,2.19,1.057a1.409,1.409,0,0,1-.908,1.557c-.891.289-1.46-.1-1.995-1.426Z" transform="translate(-22.939 -9.285)" fill="#fff"/><path d="M23.107,18.535c-.768-1.006-.849-1.566-.323-2.164a1.443,1.443,0,0,1,1.778-.306,1.422,1.422,0,0,1,.594,1.7C24.919,18.51,24.469,18.688,23.107,18.535Z" transform="translate(-12.922 -9.144)" fill="#fff"/><path d="M56.386,37.972c-1.078-.586-1.078-.586-.819-1.625C56.6,36,56.6,36,57.265,37.026Z" transform="translate(-31.904 -20.802)" fill="#fff"/></svg>