
<svg version="1.1" id="Шар_1" xmlns="http://www.w3.org/2000/svg" x="0" y="0" viewBox="0 0 487.9 488.6" xml:space="preserve"><style>.st0{fill:#fff}</style><path class="st0" d="M487.3 468.1L464.5 382a39.7 39.7 0 00-30-28.6l.3-.9-33-12.9s-13-7.5-28.5-25.5c-8.7-10.1-22.8-25.8-33.5-37.6v-97.2c2 .7 4.7 1.5 8.3 2.6 14.8 4.2 33.7-3.8 33.7-3.8s40.8-18.7 46.3-20.5 14.2-3.5 31.2 0 18.5-12.5 18.5-12.5v-62c0-23-1-20-9.5-26.5-27.5-19-63.5 6.5-85 15.5-33.6 14.1-43.5 0-43.5 0v-30c0-5.8-4.7-10.5-10.5-10.5s-10.5 4.7-10.5 10.5v148.6c-5.9-4.8-15.6-4.7-27.2-5.1-39.2-5.2-59.5-33.8-66-43-13-23.8-28.7-20-28.7-20h-83.3s-23.8-9.8-41.2-34.2c-7.2-10.5-15-20.8-17-31.2-3.2-5.5-13.2-15.7-27.5-7.4-2.2 2.9-9.2 9.1-2.5 21.6s15 34 45.8 62.2c19.2 13.2 38.2 24 38.2 24v197.6l-5.9.3c-17.9 1-21.8 3.1-32.4 17.5L2.9 465.2c-6.8 9.2-.9 22.6 10.5 23.3h458.5c2.3 0 4.5-.5 6.4-1.3 7.4-3.1 11.1-11.4 9-19.1zM247.9 216.6c33.8 14.2 48 12 63.2 10 3.2-.4 5.7-1.4 7.8-2.9v39.9c-3.2 1.6-6.8 3.5-8.5 5-3.5 3-22.5 15.5-30 13s-23.4-11.5-36.4 0-32.1 29-32.1 29l-1.2.3V188.3c2.1 11.5 29.9 24.8 37.2 28.3zM160 267.2c5.9 0 10.7 4.8 10.7 10.7v42l-.8.2-20.5 25.6v-67.8c0-5.9 4.7-10.7 10.6-10.7z"/><circle class="st0" cx="160" cy="53.2" r="53.2"/></svg>