
<svg width="170" height="35" fill="none" xmlns="http://www.w3.org/2000/svg"><path fill-rule="evenodd" clip-rule="evenodd" d="M165.95 25.553c0-.2-.07-.376-.216-.522-.143-.14-.341-.212-.581-.212h-.824v1.472h.824c.24 0 .438-.07.581-.214a.698.698 0 00.216-.524zm0 3.367l-1.001-1.928h-.62v1.928h-.896v-4.857h1.831a1.6 1.6 0 011.127.44c.138.132.242.3.324.485.077.176.117.37.117.565 0 .35-.09.635-.279.853a1.56 1.56 0 01-.68.469l1.084 2.045h-1.007zm2.651-2.424c0-.508-.095-.991-.281-1.432a3.563 3.563 0 00-.766-1.164 3.802 3.802 0 00-1.136-.781 3.556 3.556 0 00-1.413-.28c-.503 0-.982.094-1.421.28-.436.2-.816.45-1.141.78a3.547 3.547 0 00-.766 1.165c-.185.44-.281.924-.281 1.432 0 .519.096 1 .281 1.444.189.447.444.834.766 1.159.325.328.705.595 1.141.778.439.19.918.29 1.421.29a3.55 3.55 0 002.549-1.067 3.662 3.662 0 001.047-2.604zm.899 0c0 .625-.113 1.213-.357 1.76a4.747 4.747 0 01-.953 1.427c-.407.399-.881.725-1.432.962a4.434 4.434 0 01-1.753.355 4.468 4.468 0 01-1.76-.355 4.821 4.821 0 01-1.425-.962 4.71 4.71 0 01-.966-1.428 4.481 4.481 0 01-.354-1.76c0-.616.123-1.2.354-1.744a4.661 4.661 0 01.966-1.432c.411-.4.885-.727 1.425-.969a4.517 4.517 0 011.76-.35c.617 0 1.209.12 1.753.35a4.735 4.735 0 011.432.969c.399.408.716.885.953 1.432.244.545.357 1.128.357 1.745zM.653 26.492l3.002-3.807a.618.618 0 01.89-.091c2.5 2.07 5.134 3.363 8.288 3.363 2.645 0 4.242-1.113 4.242-2.934v-.089c0-1.731-1.01-2.621-5.921-3.955-5.924-1.6-9.743-3.333-9.743-9.51v-.09C1.41 3.733 5.694 0 11.7 0c4.05 0 7.536 1.272 10.423 3.553.278.22.337.645.14.947l-2.65 4.066a.62.62 0 01-.882.171c-2.423-1.687-4.806-2.69-7.116-2.69-2.479 0-3.78 1.199-3.78 2.71v.09c0 2.043 1.26 2.71 6.342 4.087 5.963 1.646 9.323 3.913 9.323 9.334v.088C23.5 28.535 19.05 32 12.707 32A18.1 18.1 0 01.733 27.476c-.279-.243-.31-.693-.08-.984M29.157 1h6.09c.228 0 .44.122.56.32L43.5 14.107 51.194 1.32c.119-.198.33-.32.555-.32h6.096c.362 0 .655.304.655.678V31.32c0 .376-.293.68-.655.68h-5.243a.668.668 0 01-.657-.68V11.762l-8.444 13.24h-.172l-8.358-13.11V31.32c0 .376-.294.68-.657.68h-5.157a.668.668 0 01-.657-.68V1.678c0-.374.294-.678.657-.678M67.097 1h4.806c.33 0 .597.304.597.678V31.32c0 .376-.267.68-.597.68h-4.806c-.33 0-.597-.304-.597-.68V1.678c0-.374.267-.678.597-.678M82.202 1h5.639a.69.69 0 01.702.678V25.8h15.256a.69.69 0 01.701.679v4.841a.69.69 0 01-.701.68H81.5V1.678A.69.69 0 0182.202 1M109.161 1h21.463a.67.67 0 01.663.678v4.71a.67.67 0 01-.663.678h-15.523v6.29h13.583a.67.67 0 01.66.676v4.712a.67.67 0 01-.66.679h-13.583v6.51h15.735c.368 0 .664.305.664.68v4.707c0 .376-.296.68-.664.68h-21.675a.67.67 0 01-.661-.68V1.678a.67.67 0 01.661-.678M146.038 19.777l-11.43-17.734A.68.68 0 01135.19 1h6.452a.69.69 0 01.592.332l7.316 12.113 7.445-12.116a.689.689 0 01.589-.329h6.225a.68.68 0 01.582 1.046l-11.424 17.597v11.679c0 .374-.31.678-.689.678h-5.551a.683.683 0 01-.689-.678V19.777z" fill="#fff"/></svg>