
<svg xmlns="http://www.w3.org/2000/svg" viewBox="0 0 512.164 512.164" width="512" height="512"><path d="M409.742 78.09c-3.25-23.758-12.556-42.799-27.659-56.592C368.866 9.427 351.901 2.208 333.022.621c-17.836-1.502-36.01 2.245-51.183 10.544-10.709 5.857-19.417 13.763-25.5 22.994-6.083-9.231-14.791-17.137-25.501-22.994C215.665 2.867 197.488-.88 179.655.621c-18.879 1.587-35.844 8.806-49.061 20.877-15.103 13.793-24.409 32.833-27.659 56.592-3.598 26.3 2.295 53.001 17.517 79.36 11.918 20.638 29.571 41.104 52.47 60.829 38.633 33.278 78.461 52.809 80.137 53.624a7.486 7.486 0 006.558 0c1.677-.815 41.504-20.346 80.137-53.624 22.899-19.725 40.553-40.191 52.47-60.829 15.223-26.359 21.116-53.059 17.518-79.36z" data-original="#FF3D43" data-old_color="#FF3D43" fill="#fdec01"/><path d="M409.742 78.09c-3.25-23.758-12.556-42.799-27.659-56.592C368.866 9.427 351.901 2.208 333.022.621c-8.365-.704-16.801-.24-24.97 1.293 15.116 2.88 28.7 9.549 39.689 19.584C362.844 35.291 372.15 54.332 375.4 78.09c3.598 26.3-2.295 53.001-17.517 79.36-11.917 20.638-29.571 41.104-52.47 60.829-25.226 21.73-50.954 37.593-66.245 46.216 8.127 4.583 13.31 7.125 13.892 7.408a7.486 7.486 0 006.558 0c1.677-.815 41.504-20.346 80.137-53.624 22.899-19.725 40.553-40.191 52.47-60.829 15.222-26.359 21.115-53.059 17.517-79.36z" data-original="#D62D2D" class="active-path" data-old_color="#D62D2D" fill="#c4b701"/><path d="M197.932 125.089c-8.024 0-14.553-6.528-14.553-14.553s6.528-14.553 14.553-14.553c8.025 0 14.553 6.528 14.553 14.553s-6.528 14.553-14.553 14.553zM314.746 125.089c-8.025 0-14.553-6.528-14.553-14.553s6.528-14.553 14.553-14.553c8.025 0 14.553 6.528 14.553 14.553s-6.528 14.553-14.553 14.553zM256.339 159.909c-14.669 0-27.469-9.4-31.852-23.391a7.5 7.5 0 1114.315-4.483c2.412 7.701 9.46 12.874 17.537 12.874 8.078 0 15.125-5.174 17.537-12.874a7.501 7.501 0 0114.315 4.483c-4.383 13.991-17.183 23.391-31.852 23.391z" data-original="#464649" fill="#464649"/><g><path d="M360.022 307.196c-7.831-10.636-22.007-13.909-33.704-7.783l-99.567 52.13a7.5 7.5 0 003.478 14.145h83.317a7.499 7.499 0 003.569-.904l34.16-18.488a26.547 26.547 0 0013.277-17.559 26.548 26.548 0 00-4.53-21.541z" data-original="#F7B081" fill="#f7b081"/><path d="M364.552 328.738a26.54 26.54 0 00-3.175-19.497l-102.624 56.447h54.793a7.499 7.499 0 003.569-.904l34.16-18.488a26.554 26.554 0 0013.277-17.558z" data-original="#DB9975" fill="#db9975"/><path d="M412.841 323.778c-7.127-11.763-22.187-15.849-34.283-9.303l-68.582 37.117a7.5 7.5 0 003.57 14.097h17.102c7.145 0 12.957 5.813 12.957 12.957a7.498 7.498 0 0010.992 6.637l48.21-25.364a25.852 25.852 0 0012.824-15.903 25.857 25.857 0 00-2.79-20.238z" data-original="#F7B081" fill="#f7b081"/><path d="M412.841 323.778c-.032-.052-.066-.102-.099-.154l-76.466 43.368c4.329 2.1 7.328 6.527 7.328 11.652a7.498 7.498 0 0010.992 6.637l48.21-25.364a25.852 25.852 0 0012.824-15.903 25.848 25.848 0 00-2.789-20.236z" data-original="#DB9975" fill="#db9975"/><path d="M467.636 334.204c-7.51-10.496-21.787-13.879-33.21-7.87l-86.814 45.674a7.498 7.498 0 00-4.008 6.637c0 6.512-4.872 12.038-11.332 12.854l-127.275 16.092a7.5 7.5 0 00.045 14.887l54.054 6.504a251.934 251.934 0 0030.111 1.812c42.027 0 83.148-10.625 120.395-31.294l49.518-27.479a25.987 25.987 0 0012.731-17.001 25.993 25.993 0 00-4.215-20.816z" data-original="#F7B081" fill="#f7b081"/><path d="M301.241 402.983l-102.738 12.989a7.497 7.497 0 006.539 6.507l54.054 6.504a251.934 251.934 0 0030.111 1.812c42.027 0 83.148-10.625 120.395-31.294l49.518-27.479a25.987 25.987 0 0012.731-17.001 25.989 25.989 0 00-1.86-16.79l-124.953 66.676-43.797-1.924z" data-original="#DB9975" fill="#db9975"/><path d="M506.361 356.869c-8.516-11.27-23.767-14.673-36.265-8.093-.049.025-.097.052-.146.078l-67.629 37.53c-41.367 22.956-87.82 32.725-134.749 28.415l66.58-8.418c13.939-1.762 24.451-13.686 24.451-27.736 0-15.415-12.541-27.957-27.957-27.957H231.75c-7.953-3.25-44.527-16.692-87.76-8.655-41.698 7.751-75.837 32.918-84.685 39.904H7.5a7.5 7.5 0 00-7.5 7.5v99.256a7.5 7.5 0 007.5 7.5h54.127l170.207 15.168c3.844.343 7.677.507 11.514.506 48.802-.003 96.83-26.58 139.564-50.231a2379.29 2379.29 0 0115.376-8.462l98.891-53.796a28.674 28.674 0 0014.337-19.15 28.67 28.67 0 00-5.155-23.359z" data-original="#FFC89F" fill="#ffc89f"/><path d="M511.516 380.229a28.66 28.66 0 00-2.482-19.075l-119.12 65.145c-49.568 26.964-106 62.313-162.204 57.305L57.17 468.405H0v20.288a7.5 7.5 0 007.5 7.5h54.127l170.207 15.168c3.844.343 7.677.507 11.514.506 48.802-.003 96.83-26.58 139.564-50.231a2379.29 2379.29 0 0115.376-8.462l98.891-53.796a28.673 28.673 0 0014.337-19.149z" data-original="#FFB98A" data-old_color="#FFB98A" fill="#ffb98a"/></g></svg>