
<svg version="1.1" id="Logo" xmlns="http://www.w3.org/2000/svg" x="0" y="0" viewBox="0 0 161 39" xml:space="preserve"><style>.st0{fill:#fff}.st2{fill:#020005;enable-background:new}</style><path class="st0" d="M50.8 38.8h-4.1c-.5 0-.9-.4-.9-.9V4.1c0-.5.4-.9.9-.9h4.1c.5 0 .9.4.9.9v33.7c.1.6-.4 1-.9 1zM81.4 8.1v-4c0-.5-.4-.9-.9-.9H69.7c-.5 0-.9.4-.9.9v33.6c0 .5.4 1 1 1h10.9c.5 0 .9-.4.9-.9v-4.1c0-.5-.4-.9-.9-.9h-5.5c-.2 0-.5-.2-.5-.5v-8.1c0-.2.2-.5.5-.5h5.5c.5 0 .9-.4.9-.9V19c0-.5-.4-.9-.9-.9h-5.4c-.2 0-.5-.2-.5-.5V9.5c0-.2.2-.5.5-.5h5.4c.3.1.7-.3.7-.9zM60.4 32.5V4.1c0-.5-.4-.9-.9-.9h-4c-.5 0-.9.4-.9.9v33.7c0 .5.4.9.9.9h10.8c.5 0 .9-.4.9-.9v-4c0-.5-.4-.9-.9-.9h-5.5c-.2 0-.4-.2-.4-.4zM17.7 16.4V9.6c0-3.5-2.9-6.4-6.4-6.4H8.7c-3.5 0-6.4 2.9-6.4 6.4v4.6c0 2.6 1.2 5.1 3.3 6.7l5.3 4c.6.4.9 1.1.9 1.8v5.9c0 .5-.4.9-.9.9H9c-.5 0-.9-.4-.9-.9v-7.9c0-.5-.4-.9-.9-.9H3.1c-.5 0-.9.4-.9.9V33c0 3.2 2.6 5.8 5.8 5.8h3.9c3.2 0 5.8-2.6 5.8-5.8v-7.5c0-1.6-.7-3.1-2-4.1l-7.2-5.7c-.2-.2-.4-.5-.4-.7V9.7c0-.5.4-.9.9-.9h2c.5 0 .9.4.9.9v6.7c0 .5.4 1 1 1h4c.4 0 .8-.4.8-1zM99.2 3.2H95c-.4 0-.8.3-.9.7l-2.4 9.3-2.4-9.3c-.1-.4-.5-.7-.9-.7h-4.2c-.6 0-1 .5-.9 1.1l5.3 20.9V37.9c0 .5.4.9.9.9h4.1c.5 0 .9-.4.9-.9V25.5v-.3l5.3-20.9c.5-.5 0-1.1-.6-1.1zM34.8 4l-3.3 19.1L28.4 4c-.1-.4-.5-.8-.9-.8h-6.4c-.5 0-.9.4-.9.9v33.8c0 .5.4.9.9.9h4.1c.5 0 .9-.4.9-.9V25.4c0-.1.1-.1.1 0l2.4 12.7c.1.4.4.6.7.6h4.2c.4 0 .7-.3.7-.6l2.5-12.8c0-.1.1-.1.1 0v12.6c0 .5.4.9.9.9h4.1c.5 0 .9-.4.9-.9V4.1c0-.5-.4-.9-.9-.9h-6.2c-.3 0-.7.3-.8.8zM102.6 38.6c-2.7 0-5-2.2-5-5s2.2-5 5-5c2.7 0 5 2.2 5 5s-2.3 5-5 5zm0-9.1c-2.3 0-4.2 1.9-4.2 4.2 0 2.3 1.9 4.2 4.2 4.2 2.3 0 4.2-1.9 4.2-4.2 0-2.3-1.9-4.2-4.2-4.2z"/><path class="st0" d="M104.4 32.6c0-.8-.7-1.5-1.5-1.5h-2.1v5h.9V34h.5l1.1 2.1h1l-1.1-2.1c.7-.1 1.2-.7 1.2-1.4zm-2.7-.6h1.2c.4 0 .7.3.7.7 0 .4-.3.7-.7.7h-1.2V32zM154.2 38.6c-2.7 0-5-2.2-5-5s2.2-5 5-5c2.7 0 5 2.2 5 5s-2.3 5-5 5zm0-9.1c-2.3 0-4.2 1.9-4.2 4.2 0 2.3 1.9 4.2 4.2 4.2 2.3 0 4.2-1.9 4.2-4.2 0-2.3-1.9-4.2-4.2-4.2z"/><path class="st0" d="M156 32.6c0-.8-.7-1.5-1.5-1.5h-2.1v5h.9V34h.5l1.1 2.1h1l-1.1-2.1c.7-.1 1.2-.7 1.2-1.4zm-2.7-.6h1.2c.4 0 .7.3.7.7 0 .4-.3.7-.7.7h-1.2V32z"/><g><circle cx="130.8" cy="19.4" r="18.9" fill="#f4ed3b"/><path d="M130.8.1c-10.7 0-19.4 8.7-19.4 19.4s8.7 19.4 19.4 19.4 19.3-8.7 19.3-19.4S141.5.1 130.8.1zm0 37.7c-10.1 0-18.4-8.2-18.4-18.4 0-10.1 8.2-18.4 18.4-18.4s18.3 8.2 18.3 18.4c.1 10.1-8.2 18.4-18.3 18.4z"/><path class="st2" d="M143.5 20.2c-.3.1-.1 1.1.1 1.8.1.4.1.9 0 1.3-1.8 5.6-6.8 9.6-12.5 9.6-4.5 0-10.6-4.5-13-9.8-.3-.7-.6-1.3-.4-2.1.1-.4.7-1.4.3-1.4s-1.5 1.1-1.7 2.4c-.3 1.6.4.7.6.4.1-.2.4.2.8.8.5.9 5.2 10.5 13.4 10.5 4.9 0 9.2-3 11.6-7.3.4-.7 1.5-3.2 1.8-2.4.2.6.4 1.2.6 1 .4-.7-1.2-5-1.6-4.8z"/><ellipse class="st2" cx="125.9" cy="11.5" rx="1" ry="2.4"/><ellipse class="st2" cx="135.8" cy="11.5" rx="1" ry="2.4"/></g></svg>