<?xml version="1.0" encoding="UTF-8" standalone="no"?>
<svg
   xmlns:dc="http://purl.org/dc/elements/1.1/"
   xmlns:cc="http://creativecommons.org/ns#"
   xmlns:rdf="http://www.w3.org/1999/02/22-rdf-syntax-ns#"
   xmlns:svg="http://www.w3.org/2000/svg"
   xmlns="http://www.w3.org/2000/svg"
   id="svg8"
   version="1.1"
   viewBox="0 0 4.2333269 4.2333292"
   height="15.999984"
   width="15.999976">
  <g
     transform="translate(-58.057148,-94.329177)"
     id="layer1">
    <path
       id="path826"
       d="M 59.790644,98.319473 59.5333,98.076439 59.090569,98.062889 c -0.409236,-0.01252 -0.454046,-0.02027 -0.592395,-0.102358 -0.169884,-0.100801 -0.248582,-0.18125 -0.361866,-0.369879 l -0.07916,-0.131777 V 96.190522 94.92217 l 0.07916,-0.131777 c 0.112861,-0.187929 0.191601,-0.268655 0.361866,-0.371146 l 0.14969,-0.09007 h 1.525969 1.525968 l 0.149649,0.09007 c 0.170307,0.102491 0.249004,0.183217 0.361865,0.371146 l 0.07916,0.131777 v 1.268352 1.268353 l -0.0897,0.150251 c -0.101896,0.170599 -0.183092,0.250557 -0.366607,0.360915 -0.113114,0.06802 -0.180594,0.07885 -0.574289,0.09218 l -0.446113,0.0151 -0.257048,0.242593 c -0.227203,0.214441 -0.271653,0.242592 -0.382863,0.242592 -0.111252,0 -0.155617,-0.02813 -0.383159,-0.243034 z m 0.601934,-0.642847 c 0.09902,-0.08861 0.225086,-0.170146 0.280077,-0.181193 0.05503,-0.01105 0.27813,-0.02009 0.495825,-0.02009 0.361188,0 0.402421,-0.0063 0.471741,-0.07163 l 0.07595,-0.07163 v -1.136946 c 0,-1.121988 -9.9e-4,-1.137949 -0.07133,-1.213194 l -0.07133,-0.07625 H 60.17843 c -1.387187,0 -1.395497,4.1e-4 -1.471024,0.07163 l -0.07595,0.07163 v 1.136946 c 0,1.409246 -0.05368,1.289441 0.577871,1.289441 0.239353,0 0.469888,0.01325 0.512327,0.02945 0.04242,0.0162 0.150452,0.09714 0.240072,0.179885 0.08958,0.08274 0.182668,0.151024 0.206883,0.151743 0.02413,7.23e-4 0.124968,-0.07119 0.224028,-0.159799 z M 59.320583,96.991658 C 59.115309,96.913008 59.055788,96.661364 59.2084,96.517471 l 0.08471,-0.07987 h 0.880753 0.880754 l 0.08467,0.07987 c 0.116628,0.110023 0.11667,0.290262 3.3e-5,0.400318 -0.08462,0.07986 -0.08467,0.07987 -0.92707,0.0863 -0.463334,0.0035 -0.864582,-0.0021 -0.891654,-0.01243 z m 0,-1.054215 C 59.115309,95.858793 59.055788,95.607149 59.2084,95.463256 l 0.08471,-0.07987 h 0.880753 0.880754 c 0,0 0.05643,0.05325 0.08467,0.07987 0.116628,0.110022 0.116628,0.29026 3.3e-5,0.400318 -0.08462,0.07986 -0.08467,0.07987 -0.92707,0.0863 -0.463334,0.0035 -0.864582,-0.0021 -0.891654,-0.01243 z"
       style="fill:#000000;stroke-width:0.03288032" />
  </g>
</svg>
